<svg width="50" height="50" viewBox="0 0 50 50" fill="none" xmlns="http://www.w3.org/2000/svg">
<g clip-path="url(#clip0_178_1170)">
<path d="M26.8066 1.80664C26.5625 2.04102 26.5625 2.04102 26.5625 4.15039V6.25H22.9004H19.2285L18.9941 6.49414C18.8574 6.62109 18.75 6.8457 18.75 6.98242C18.75 7.11914 18.7207 7.22656 18.6914 7.22656C18.6621 7.22656 17.1582 6.82617 15.3613 6.34766C13.5547 5.85938 11.9824 5.46875 11.8652 5.46875C11.2891 5.46875 11.5039 4.72656 6.5332 23.2812C3.96484 32.8906 1.85547 40.8691 1.85547 41.0156C1.85547 41.4258 2.20703 41.6602 3.22266 41.9238L4.15039 42.168L3.0957 42.1777C2.10938 42.1875 2.02148 42.207 1.80664 42.4316C1.5625 42.666 1.5625 42.6855 1.5625 44.5312C1.5625 46.377 1.5625 46.3965 1.80664 46.6309L2.04102 46.875H25H47.959L48.1934 46.6309C48.4375 46.3965 48.4375 46.377 48.4375 44.5312C48.4375 42.6855 48.4375 42.666 48.1934 42.4316C47.998 42.2266 47.8613 42.1875 47.4121 42.1875H46.875V22.9004V3.60352L46.6309 3.36914L46.3965 3.125H41.9434H37.5V2.58789C37.5 2.13867 37.4609 2.00195 37.2559 1.80664L37.0215 1.5625H32.0312H27.041L26.8066 1.80664ZM35.9375 4.6875V6.25H32.0312H28.125V4.6875V3.125H32.0312H35.9375V4.6875ZM45.3125 6.64062V8.59375H41.4062H37.5V6.64062V4.6875H41.4062H45.3125V6.64062ZM15.5078 7.99805C17.0898 8.42773 18.3984 8.79883 18.4277 8.82812C18.4668 8.86719 9.69727 41.8555 9.60938 41.9727C9.58008 42.0117 3.68164 40.4395 3.62305 40.3711C3.54492 40.3027 12.4512 7.22656 12.5488 7.22656C12.5977 7.22656 13.9355 7.57812 15.5078 7.99805ZM26.5625 10.1562V12.5H23.4375H20.3125V10.1562V7.8125H23.4375H26.5625V10.1562ZM35.9375 22.6562V37.5H32.0312H28.125V22.6562V7.8125H32.0312H35.9375V22.6562ZM45.3125 23.4375V36.7188H41.4062H37.5V23.4375V10.1562H41.4062H45.3125V23.4375ZM18.75 28.125V42.1875H14.9902C12.9199 42.1875 11.2305 42.1582 11.2305 42.1094C11.2207 42.0215 18.6914 14.0625 18.7305 14.0625C18.7402 14.0625 18.75 20.3906 18.75 28.125ZM26.5625 23.4375V32.8125H23.4375H20.3125V23.4375V14.0625H23.4375H26.5625V23.4375ZM26.5625 35.1562V35.9375H23.4375H20.3125V35.1562V34.375H23.4375H26.5625V35.1562ZM26.5625 39.8438V42.1875H23.4375H20.3125V39.8438V37.5H23.4375H26.5625V39.8438ZM45.3125 40.2344V42.1875H41.4062H37.5V40.2344V38.2812H41.4062H45.3125V40.2344ZM35.9375 40.625V42.1875H32.0312H28.125V40.625V39.0625H32.0312H35.9375V40.625ZM46.875 44.5312V45.3125H25H3.125V44.5312V43.75H25H46.875V44.5312Z" fill="#0CAE00"/>
<path d="M14.1309 10.127C14.0527 10.2539 13.5742 12.0703 13.5742 12.2266C13.5742 12.3145 13.8086 12.4219 14.2676 12.5293C14.6582 12.627 14.9902 12.6758 15.0098 12.6562C15.0879 12.5879 15.625 10.5176 15.5859 10.4785C15.5664 10.4492 15.332 10.3809 15.0781 10.3125C14.8145 10.2441 14.502 10.1562 14.3848 10.1172C14.2676 10.0781 14.1602 10.0879 14.1309 10.127Z" fill="#0CAE00"/>
<path d="M12.8127 14.9609C11.3381 20.3809 8.0959 32.6367 8.1252 32.6758C8.20332 32.7539 9.50215 33.1055 9.55098 33.0664C9.60957 32.998 14.3459 15.3027 14.3557 15.127C14.3557 15.0098 14.1799 14.9219 13.7209 14.8047C12.9006 14.5996 12.9104 14.5996 12.8127 14.9609Z" fill="#0CAE00"/>
<path d="M7.08984 36.3379C6.88477 37.0898 6.69922 37.7734 6.67969 37.8418C6.64062 37.9297 6.79687 38.0176 7.14844 38.1152C8.27148 38.4473 8.10547 38.584 8.55469 36.8945L8.95508 35.4004L8.44727 35.2441C7.34375 34.9023 7.5 34.7852 7.08984 36.3379Z" fill="#0CAE00"/>
<path d="M29.9316 11.1816L29.6875 11.416V22.6562V33.8965L29.9316 34.1309C30.166 34.375 30.1855 34.375 32.0312 34.375C33.877 34.375 33.8965 34.375 34.1309 34.1309L34.375 33.8965V22.6562V11.416L34.1309 11.1816C33.8965 10.9375 33.877 10.9375 32.0312 10.9375C30.1855 10.9375 30.166 10.9375 29.9316 11.1816ZM32.8125 22.6562V32.8125H32.0312H31.25V22.6562V12.5H32.0312H32.8125V22.6562Z" fill="#0CAE00"/>
</g>
<defs>
<clipPath id="clip0_178_1170">
<rect width="50" height="50" fill="white"/>
</clipPath>
</defs>
</svg>
